<?xml version="1.0" ?><svg width="64px" height="64px" viewBox="0 0 64 64" id="Layer_1" style="enable-background:new 0 0 64 64;" version="1.1" xml:space="preserve" xmlns="http://www.w3.org/2000/svg" xmlns:xlink="http://www.w3.org/1999/xlink"><style type="text/css">
	.st0{fill:#1379C2;}
	.st1{fill:#358DCC;}
	.st2{fill-rule:evenodd;clip-rule:evenodd;fill:#3FB754;}
	.st3{fill-rule:evenodd;clip-rule:evenodd;fill:#CCCCCC;}
	.st4{fill:#5D5E61;}
	.st5{fill:#924F34;}
	.st6{fill:#E6E6E6;}
	.st7{fill:#0F8C7E;}
	.st8{fill-rule:evenodd;clip-rule:evenodd;fill:#E6E6E6;}
	.st9{fill-rule:evenodd;clip-rule:evenodd;fill:#E6E6E6;stroke:#000000;stroke-width:0.4799;stroke-miterlimit:2.6131;}
	.st10{fill:#823B1F;}
	.st11{fill:#FFC810;}
	.st12{fill-rule:evenodd;clip-rule:evenodd;fill:#924F34;}
	.st13{fill:#E04538;}
	.st14{fill-rule:evenodd;clip-rule:evenodd;}
	.st15{fill-rule:evenodd;clip-rule:evenodd;fill:#FFC810;}
	.st16{fill-rule:evenodd;clip-rule:evenodd;fill:#E4E7E9;}
	.st17{fill:#3FB754;}
	.st18{fill-rule:evenodd;clip-rule:evenodd;fill:#5D5E61;}
	.st19{fill:#C92B1C;}
	.st20{fill:#666666;}
	.st21{fill:#FFD95E;}
	.st22{fill:#4D4D4D;}
	.st23{fill-rule:evenodd;clip-rule:evenodd;fill:#0F8C7E;}
	.st24{fill:#999999;}
	.st25{fill:#CCCCCC;}
	.st26{fill-rule:evenodd;clip-rule:evenodd;fill:#358DCC;}
	.st27{fill-rule:evenodd;clip-rule:evenodd;fill:#823B1F;}
</style><g><path class="st4" d="M15.4,20.6v-6.5c0-5,4.1-9.1,9.1-9.1h15c5,0,9.1,4.1,9.1,9.1v6.5h-4.5v-6.5c0-2.5-2.1-4.6-4.6-4.6h-15   c-2.5,0-4.6,2.1-4.6,4.6v6.5H15.4L15.4,20.6z"/><path d="M14.4,20.6v-6.5C14.4,8.5,19,4,24.5,4h15c5.6,0,10.1,4.5,10.1,10.1v6.5v1h-1h-4.5h-1v-1v-6.5c0-2-1.6-3.6-3.7-3.6h-15   c-2,0-3.6,1.6-3.6,3.6v6.5v1h-1h-4.5h-1V20.6L14.4,20.6z M16.4,14.1v5.5h2.6v-5.5c0-3.1,2.5-5.6,5.6-5.6h15c3.1,0,5.6,2.5,5.6,5.6   v5.5h2.6v-5.5c0-4.5-3.7-8.1-8.1-8.1h-15C20,5.9,16.4,9.6,16.4,14.1L16.4,14.1z"/><path class="st5" d="M3.2,18.7h2.4h9.8h4.5h24.2h4.5h12.2c1.2,0,2.3,1,2.3,2.3v35.9c0,1.2-1,2.2-2.3,2.2H3.2C2,59,1,58,1,56.8V20.9   C1,19.7,2,18.7,3.2,18.7L3.2,18.7z"/><path d="M3.2,17.7c19.2,0,38.4,0,57.6,0c1.8,0,3.2,1.4,3.2,3.2v35.9c0,1.8-1.4,3.2-3.2,3.2H3.2C1.4,60,0,58.6,0,56.8V20.9   c0-0.9,0.4-1.7,0.9-2.3C1.5,18.1,2.3,17.7,3.2,17.7L3.2,17.7z M3.2,19.7c-0.4,0-0.7,0.1-0.9,0.4c-0.2,0.2-0.4,0.6-0.4,0.9v35.9   c0,0.7,0.6,1.3,1.3,1.3h57.6c0.7,0,1.3-0.6,1.3-1.3V20.9c0-0.7-0.6-1.3-1.3-1.3C41.6,19.7,22.4,19.7,3.2,19.7L3.2,19.7z"/><path class="st6" d="M10.1,18.7h4.5V59h-4.5V18.7L10.1,18.7z M49.6,18.7H54V59h-4.5V18.7L49.6,18.7z"/><path d="M10.1,17.7h4.5h1v1V59v1h-1h-4.5h-1v-1V18.7v-1H10.1L10.1,17.7z M13.6,19.7H11v38.4h2.5V19.7L13.6,19.7z M49.6,17.7H54h1v1   V59v1h-1h-4.5h-1v-1V18.7v-1H49.6L49.6,17.7z M53.1,19.7h-2.5v38.4h2.5V19.7L53.1,19.7z"/></g></svg>